<?xml version="1.0" encoding="utf-8"?>
<!-- Generator: Adobe Illustrator 21.1.0, SVG Export Plug-In . SVG Version: 6.00 Build 0)  -->
<svg version="1.1" id="Layer_1" xmlns="http://www.w3.org/2000/svg" xmlns:xlink="http://www.w3.org/1999/xlink" x="0px" y="0px"
	 viewBox="0 0 145.4 30.2" style="enable-background:new 0 0 145.4 30.2;" xml:space="preserve">
<style type="text/css">
	.st0{fill:#010101;}
</style>
<g>
	<path class="st0" d="M1.8,4.5C3.3,1.4,5.9,0,9.5,0c3.3,0,5.4,1.5,6.2,4.1c0.1,0.2,0,0.4-0.2,0.5l-4.4,1.7c-0.2,0.1-0.4,0-0.5-0.1
		C10.3,5.4,9.9,5,8.9,5C8,5,7.3,5.5,6.9,6.3c-0.4,0.8-1.2,5.1-1.2,6.6c0,1,0.6,1.7,1.7,1.7c1.1,0,1.8-0.5,2.1-1.1
		c0.1-0.2,0.1-0.4,0.2-0.7c0-0.1-0.1-0.2-0.2-0.2H8.1c-0.1,0-0.2-0.1-0.2-0.3l0.6-3.5c0-0.2,0.1-0.3,0.3-0.3h6.8
		c0.2,0,0.2,0.1,0.2,0.3l-0.2,1.3c-0.5,2.7-0.8,3.8-1.4,5c-1.6,3.1-4,4.4-7.5,4.4c-4,0-6.6-2.1-6.6-6.1C0,11.5,0.7,6.7,1.8,4.5z"/>
	<path class="st0" d="M19.6,19.2c-0.2,0-0.3-0.1-0.2-0.3l1.2-6.8L16.8,0.6c-0.1-0.2,0.1-0.3,0.2-0.3h4.7c0.2,0,0.4,0.1,0.4,0.3
		L24,6.7h0.1l3.9-6.1c0.1-0.2,0.2-0.3,0.5-0.3h5.2c0.2,0,0.3,0.1,0.2,0.3l-7.7,11.5l-1.2,6.8c0,0.2-0.1,0.3-0.3,0.3H19.6z"/>
	<path class="st0" d="M35,0.6c0-0.2,0.1-0.3,0.3-0.3h4.7c0.2,0,0.4,0.1,0.4,0.3l2.2,9h0.1l5.3-9c0.1-0.2,0.3-0.3,0.5-0.3h5
		c0.2,0,0.3,0.1,0.2,0.3l-3.2,18.3c0,0.2-0.1,0.3-0.3,0.3h-4.5c-0.2,0-0.3-0.1-0.2-0.3l1.6-9h-0.1l-3.6,6.3
		c-0.2,0.3-0.4,0.4-0.6,0.4h-2.4c-0.1,0-0.4-0.1-0.5-0.4L38.5,10h-0.1l-1.6,9c0,0.2-0.1,0.3-0.3,0.3H32c-0.1,0-0.2-0.1-0.2-0.3
		L35,0.6z"/>
	<path class="st0" d="M62.5,0.6c0-0.2,0.1-0.3,0.3-0.3h4.7c0.2,0,0.4,0.1,0.4,0.3l2.2,9h0.1l5.3-9c0.1-0.2,0.3-0.3,0.5-0.3h5
		c0.2,0,0.3,0.1,0.2,0.3l-3.2,18.3c0,0.2-0.1,0.3-0.3,0.3h-4.5c-0.2,0-0.3-0.1-0.2-0.3l1.6-9h-0.1l-3.6,6.3
		c-0.2,0.3-0.4,0.4-0.6,0.4h-2.4c-0.1,0-0.4-0.1-0.5-0.4L66,10h-0.1l-1.6,9c0,0.2-0.1,0.3-0.3,0.3h-4.5c-0.1,0-0.2-0.1-0.2-0.3
		L62.5,0.6z"/>
	<path class="st0" d="M83.6,0.6c0-0.2,0.1-0.3,0.3-0.3h12.3c0.2,0,0.2,0.1,0.2,0.3l-0.7,4.1c0,0.2-0.1,0.3-0.3,0.3h-6.8
		c-0.1,0-0.2,0.1-0.2,0.2l-0.4,2.1c0,0.1,0,0.2,0.1,0.2h5.4c0.2,0,0.2,0.1,0.2,0.3l-0.7,4c0,0.2-0.2,0.3-0.3,0.3h-5.4
		c-0.1,0-0.1,0.1-0.2,0.2l-0.4,2.2c0,0.1,0,0.2,0.1,0.2h6.8c0.2,0,0.2,0.1,0.2,0.3l-0.7,4.1c0,0.2-0.1,0.3-0.3,0.3H80.5
		c-0.1,0-0.2-0.1-0.2-0.3L83.6,0.6z"/>
	<path class="st0" d="M94.1,18.9l9.6-18.3c0.1-0.2,0.2-0.3,0.4-0.3h5.5c0.2,0,0.3,0.1,0.3,0.3l3,18.3c0,0.2-0.1,0.3-0.2,0.3h-5.3
		c-0.2,0-0.3-0.1-0.3-0.3l-0.2-2.6h-5.4l-1.1,2.6c-0.1,0.2-0.2,0.3-0.4,0.3h-5.6C94.1,19.2,94,19.1,94.1,18.9z M106.3,11.7l-0.5-5.2
		h-0.1l-2.4,5.2H106.3z"/>
	<path class="st0" d="M117.5,0.6c0-0.2,0.1-0.3,0.3-0.3h5c0.2,0,0.3,0.1,0.2,0.3l-2.4,13.5c0,0.1,0,0.2,0.1,0.2h6.5
		c0.2,0,0.3,0.1,0.2,0.3l-0.8,4.4c0,0.2-0.1,0.3-0.3,0.3h-12c-0.2,0-0.3-0.1-0.2-0.3L117.5,0.6z"/>
	<path class="st0" d="M128.2,16.7c-0.1-0.1-0.1-0.4,0.1-0.5l3.3-3.2c0.1-0.1,0.3-0.1,0.4,0c0.9,0.9,2.4,1.7,4.1,1.7
		c1.5,0,2.4-0.6,2.4-1.4c0-0.5-0.4-0.9-1.6-1.1l-1-0.1c-3.6-0.5-5.4-2.2-5.4-4.9c0-4.2,3.1-7.2,8.1-7.2c2.7,0,5.1,0.9,6.6,2.2
		c0.1,0.1,0.1,0.3,0,0.5l-3,3.4c-0.1,0.1-0.3,0.1-0.4,0.1c-1-0.8-2.2-1.3-3.6-1.3c-1.1,0-1.9,0.5-1.9,1.2c0,0.5,0.3,0.9,1.6,1.1
		l0.9,0.1c3.6,0.5,5.5,2.2,5.5,5c0,4.6-3.5,7.4-8.8,7.4C132.5,19.5,129.4,18.2,128.2,16.7z"/>
	<path class="st0" d="M35.9,24C35.9,23.9,35.9,23.9,35.9,24l2.2-0.1c1,0,1.7,0.4,2,1.3c0.1,0.3,0.2,0.7,0.2,1.8
		c0,1.1-0.1,1.4-0.2,1.8c-0.3,0.9-1,1.3-2,1.3H36c-0.1,0-0.1,0-0.1-0.1V24z M36.8,29.3h1.1c0.7,0,1.2-0.2,1.4-0.8
		c0.1-0.2,0.1-0.5,0.1-1.5s0-1.3-0.1-1.5c-0.2-0.6-0.7-0.8-1.4-0.8h-1.1c0,0-0.1,0-0.1,0.1L36.8,29.3C36.7,29.3,36.7,29.3,36.8,29.3
		z"/>
	<path class="st0" d="M50.6,24C50.6,23.9,50.6,23.9,50.6,24l0.7-0.1c0.1,0,0.1,0,0.1,0.1v6c0,0.1,0,0.1-0.1,0.1h-0.6
		c-0.1,0-0.1,0-0.1-0.1V24z"/>
	<path class="st0" d="M65.6,30.1c-0.1,0-0.1,0-0.1-0.1l-1.2-2.5h-1.4c0,0-0.1,0-0.1,0.1V30c0,0.1,0,0.1-0.1,0.1h-0.6
		C62,30.1,62,30,62,30v-6c0-0.1,0-0.1,0.1-0.1h2.2c1.2,0,1.9,0.7,1.9,1.8c0,0.8-0.5,1.4-1.2,1.7l1.3,2.6c0,0.1,0,0.1-0.1,0.1H65.6z
		 M65.4,25.7c0-0.6-0.4-1-1.1-1h-1.4c0,0-0.1,0-0.1,0.1v1.9c0,0,0,0.1,0.1,0.1h1.4C65,26.7,65.4,26.3,65.4,25.7z"/>
	<path class="st0" d="M76.6,24C76.6,23.9,76.7,23.9,76.6,24l3.8-0.1c0.1,0,0.1,0,0.1,0.1v0.6c0,0.1,0,0.1-0.1,0.1h-2.9
		c0,0-0.1,0-0.1,0.1v1.8c0,0,0,0.1,0.1,0.1H80c0.1,0,0.1,0,0.1,0.1v0.6c0,0.1,0,0.1-0.1,0.1h-2.5c0,0-0.1,0-0.1,0.1v1.9
		c0,0,0,0.1,0.1,0.1h2.9c0.1,0,0.1,0,0.1,0.1V30c0,0.1,0,0.1-0.1,0.1h-3.7c-0.1,0-0.1,0-0.1-0.1V24z"/>
	<path class="st0" d="M90.6,27c0-1,0-1.4,0.2-1.7c0.3-1,1-1.4,2-1.4c0.9,0,1.6,0.5,2,1.2c0,0,0,0.1,0,0.1l-0.5,0.3
		c-0.1,0-0.1,0-0.1,0c-0.2-0.5-0.6-0.8-1.3-0.8c-0.7,0-1.1,0.3-1.3,0.9c-0.1,0.3-0.1,0.6-0.1,1.5s0,1.3,0.1,1.5
		c0.2,0.6,0.6,0.9,1.3,0.9c0.6,0,1-0.3,1.3-0.8c0,0,0.1-0.1,0.1,0l0.5,0.3c0,0,0.1,0.1,0,0.1c-0.4,0.8-1.1,1.2-2,1.2
		c-1,0-1.7-0.5-2-1.4C90.6,28.4,90.6,28,90.6,27z"/>
	<path class="st0" d="M106.2,30.1C106.1,30.1,106.1,30,106.2,30.1l-0.1-5.4c0,0,0-0.1-0.1-0.1h-1.7c-0.1,0-0.1,0-0.1-0.1V24
		c0-0.1,0-0.1,0.1-0.1h4.3c0.1,0,0.1,0,0.1,0.1v0.6c0,0.1,0,0.1-0.1,0.1h-1.7c0,0-0.1,0-0.1,0.1V30c0,0.1,0,0.1-0.1,0.1H106.2z"/>
</g>
</svg>
